<svg xmlns="http://www.w3.org/2000/svg" viewBox="0 0 447.95 201.19">
    <defs>
        <style>
            .cls-1 {
            fill: #fff;
            }
        </style>
    </defs>
    <g id="logo_inverted">
        <path id="ear" class="cls-1"
              d="m136.88,52.32c3.84-4.11,9.4-5.24,12.89-3.26,4.54,2.58,6.39,10.88,1.19,17.19.01-.85,0-6.31-4.44-10.37-3.95-3.6-8.64-3.58-9.63-3.56Z"/>
        <path id="eye" class="cls-1" d="m84.37,69.63l1.73-5.5,17.18,1.38s-8.9,6.35-18.91,4.12Z"/>
        <path id="silhouette" class="cls-1"
              d="m184.6,68.08c-1.62-1.23-4.67-3.19-8.97-4.11-3.57-.77-6.6-.52-8.49-.21.58-.69,1.34-1.49,2.32-2.27,1.33-1.07,2.63-1.75,3.64-2.19-1.39-.64-3.61-1.44-6.44-1.65-2.32-.17-4.27.13-5.63.45.35-6.57-2.29-9.7-3.08-10.55-5.19-5.56-17.28-5.47-28.07,2.81-3.59-1.65-14.64-6.19-28.41-3.08-10.74,2.43-17.73,8.29-20.74,11.16-1.72-.63-4.29-1.24-7.38-2.02-8.77-2.21-27.34-2.99-36.84,3.72.37.8,1.09,2.1,2.43,3.3,1.67,1.49,3.42,2.04,4.32,2.26-.96.64-2.13,1.32-3.52,1.93-1.52.68-2.94,1.12-4.17,1.41-.21,2.99-.32,6.01-.32,9.06,0,.69.01,1.39.02,2.08.91-.29,2.07-.6,3.42-.87.63,5.93,2.99,11.38,3.96,11.19.74-.14.07-3.47,1.45-9.56.2-.87.41-1.66.61-2.35,3.22-.13,6.72.17,9.95,1.32,7.44,2.67,13.87,8.02,14.26,8.78.17.32.44,1.01.26,2.15-.56,3.45-2.88,12.84-7.85,18.07-3.63,3.81-8.13,6.52-11.85,8.33-3.08-4.74-3.44-8.36-4.22-8.27-.92.11-1.4,5.22-.69,10.37-1.11.42-1.89.68-2.19.8.55,1.58,1.14,3.14,1.75,4.69,2.45,6.19,8.8,9.97,15.39,8.99,2.07-.3,4.18-.46,6.33-.46.28,0,.57,0,.85.01,15.14.29,28.35,8.46,35.7,20.58-.01.14-.02.29-.04.44-.89,7.81-3.67,13.66-5.57,16.99,1.58-1.19,4.76-3.7,8.17-7.36-.09.96-.22,1.96-.37,2.97-1.09,7.1-3.22,12.8-5.08,16.79,1.72-1.22,5.3-3.9,9.08-7.87v.19c0,5.53-1.05,10.82-2.97,15.67-1.33,3.37-3.07,6.53-5.17,9.42-.15,0-.29,0-.44-.01-.72,0-1.44,0-2.15-.03-6.86-.18-13.54-1.05-19.98-2.54-.79-.18-1.58-.37-2.36-.58-1.19-.3-2.38-.62-3.55-.98-.47-.13-.93-.27-1.4-.42-.75-.23-1.49-.47-2.24-.73-.69-.23-1.38-.47-2.06-.72-2.77-1-5.49-2.13-8.14-3.37-.42-.19-.83-.39-1.24-.59-8.17-3.94-15.72-8.96-22.48-14.87-1.72-1.5-3.39-3.06-5-4.68-.57-.56-1.13-1.14-1.68-1.72-1.65-1.74-3.24-3.52-4.76-5.37-.01-.02-.03-.03-.04-.05-.51-.62-1.02-1.25-1.51-1.88-1.99-2.53-3.86-5.16-5.6-7.88-.85-1.32-1.66-2.67-2.45-4.03-.1-.17-.2-.35-.3-.53-.32-.57-.64-1.14-.95-1.71-1.16-2.13-2.25-4.32-3.25-6.55-.34-.74-.66-1.49-.98-2.24-2.33-5.51-4.18-11.28-5.5-17.25-.12-.54-.24-1.08-.35-1.62-1.34-6.54-2.04-13.31-2.04-20.25,0-.5,0-1,.01-1.5,0-.15,0-.29,0-.44.01-.57.02-1.13.05-1.7,0-.22,0-.44.03-.67.01-.5.04-1,.07-1.51.02-.37.04-.75.07-1.12.04-.61.09-1.22.14-1.83.01-.07.01-.13.02-.19.06-.69.13-1.38.21-2.06.02-.23.04-.45.07-.67.07-.61.15-1.21.23-1.81.02-.14.03-.28.06-.42.1-.72.2-1.43.32-2.15C7.59,45.67,36.39,13.92,73.96,3.58c.77-.21,1.54-.42,2.32-.61h0c.77-.19,1.54-.38,2.32-.55.78-.18,1.56-.34,2.35-.5.77-.15,1.55-.3,2.32-.43.71-.13,1.42-.24,2.14-.35.46-.07.93-.14,1.4-.19.44-.07.88-.13,1.32-.18.72-.1,1.44-.18,2.17-.25.64-.06,1.27-.12,1.91-.17,1.08-.09,2.16-.17,3.25-.22,2.5-.12,4.98-.16,7.43-.1.48.01.95.02,1.42.04.42.01.84.03,1.26.05.29.02.57.03.86.05.45.02.91.05,1.36.09.46.03.91.06,1.36.1.37.03.73.06,1.1.1.41.04.81.08,1.22.13.54.05,1.08.11,1.61.18.14.02.28.04.42.05.71.09,1.42.19,2.12.3,1.26.19,2.51.4,3.76.64.83.15,1.67.32,2.49.5.48.1.96.21,1.44.32.97.22,1.94.46,2.9.72.6.15,1.2.31,1.79.49.1.02.19.05.29.08.58.16,1.16.33,1.74.51.38.11.76.23,1.13.36.64.2,1.28.41,1.92.63.36.12.72.24,1.07.37.49.17.98.35,1.47.53,2.79,1.04,5.52,2.2,8.19,3.47.59.28,1.18.56,1.76.86.53.26,1.06.53,1.58.81l.75.39c.38.2.75.4,1.12.61.85.47,1.68.94,2.51,1.43.53.31,1.06.63,1.58.95,1.85,1.13,3.66,2.33,5.42,3.57.58.4,1.14.81,1.7,1.23.51.37,1,.74,1.5,1.13.11.08.23.17.35.26.52.4,1.04.81,1.55,1.23.56.44,1.11.9,1.65,1.36.52.43,1.03.87,1.53,1.3.1.1.2.19.3.27.47.41.93.83,1.39,1.25,1.05.97,2.09,1.95,3.1,2.96.5.5,1,1.01,1.5,1.53.99,1.03,1.95,2.08,2.9,3.15.47.53.94,1.07,1.4,1.62.43.51.86,1.03,1.29,1.55.05.08.12.15.18.23.41.51.82,1.03,1.23,1.55,1.75,2.26,3.41,4.59,4.96,7,.39.6.78,1.2,1.15,1.81.38.61.75,1.23,1.12,1.85.36.62.72,1.24,1.07,1.87,1.74,3.1,3.32,6.31,4.73,9.61.3.71.59,1.42.88,2.13.53,1.34,1.04,2.69,1.52,4.06.24.69.47,1.38.7,2.07.23.7.44,1.39.66,2.1.21.7.41,1.4.61,2.11.2.7.38,1.42.57,2.13.54,2.14,1.02,4.31,1.42,6.5-6.17-5.49-13.2-10.03-20.85-13.4.56-.22,1.21-.43,1.95-.58,1.62-.33,3.02-.28,4-.16Z"/>
    </g>
    <g id="font_inverted">
        <g id="Roboto_Flex_Italic_Berlin_Electirc_Academic_Racing"
           data-name="Roboto Flex Italic Berlin Electirc Academic Racing">
            <path class="cls-1"
                  d="m167.57,152.98h5.06c1.51,0,2.65.3,3.41.91.76.6,1.03,1.55.8,2.83-.14.78-.43,1.41-.89,1.9s-.97.84-1.56,1.03v.04c.63.19,1.11.57,1.44,1.13.34.56.42,1.29.26,2.21-.23,1.29-.86,2.29-1.89,3-1.03.71-2.3,1.07-3.79,1.07h-5.34l2.49-14.11Zm3.15,12.2c.83,0,1.48-.2,1.94-.61.46-.41.75-.96.87-1.66.12-.68.03-1.23-.29-1.63-.32-.4-.89-.61-1.73-.61h-2.73l-.79,4.51h2.73Zm.83-6.34c.83,0,1.45-.17,1.88-.52.43-.35.69-.84.8-1.46s.01-1.11-.29-1.45c-.3-.34-.87-.51-1.7-.51h-2.45l-.7,3.94h2.45Z"/>
            <path class="cls-1"
                  d="m178.03,161.84c.27-1.54.91-2.79,1.93-3.77,1.01-.98,2.22-1.46,3.61-1.46s2.38.46,2.97,1.37c.59.91.75,2.14.48,3.69l-.14.74h-7.84l.25-1.43h6.03l.05-.23c.13-.74.03-1.36-.3-1.88-.33-.52-.89-.78-1.68-.78-.96,0-1.73.36-2.34,1.09-.6.73-.99,1.62-1.17,2.67l-.06.31c-.19,1.05-.1,1.94.28,2.67s1.08,1.09,2.13,1.09c.65,0,1.23-.14,1.74-.43.51-.28.95-.62,1.31-1.01l1,.92c-.41.48-.99.94-1.74,1.36s-1.61.63-2.58.63c-1.58,0-2.71-.49-3.38-1.46-.67-.98-.87-2.23-.6-3.77l.06-.31Z"/>
            <path class="cls-1"
                  d="m190.05,156.89h1.63l-.15,1.31h.06c.33-.43.73-.8,1.21-1.12.48-.32,1.01-.48,1.59-.48.14,0,.29.02.44.05.15.03.25.06.31.09l-.29,1.67c-.12-.03-.26-.04-.4-.06-.14-.01-.3-.02-.47-.02-.58,0-1.1.15-1.56.46-.46.3-.83.68-1.1,1.13l-1.26,7.17h-1.8l1.79-10.2Z"/>
            <path class="cls-1" d="m197.74,152.2h1.8l-2.63,14.89h-1.8l2.63-14.89Z"/>
            <path class="cls-1"
                  d="m201.75,156.89h1.8l-1.79,10.2h-1.8l1.79-10.2Zm.75-3.85c.23-.21.52-.31.89-.31s.62.1.78.31c.16.21.21.46.16.77-.06.3-.2.56-.43.77-.23.21-.53.31-.89.31s-.62-.1-.78-.31c-.16-.21-.21-.46-.15-.77.05-.3.19-.56.42-.77Z"/>
            <path class="cls-1"
                  d="m206.5,156.89h1.63l-.15,1.31h.06c.45-.46.96-.83,1.54-1.1.58-.27,1.2-.4,1.84-.4,1.03,0,1.79.29,2.3.88.51.58.64,1.56.4,2.93l-1.16,6.58h-1.8l1.16-6.6c.14-.81.06-1.4-.24-1.75-.3-.35-.79-.53-1.46-.53-.58,0-1.11.16-1.6.47-.49.31-.91.71-1.25,1.2l-1.27,7.21h-1.8l1.79-10.2Z"/>
            <path class="cls-1"
                  d="m223.2,152.98h9.29l-.36,2.02h-6.7l-.68,3.83h5.82l-.35,2h-5.82l-.75,4.26h6.8l-.36,2.01h-9.39l2.49-14.11Z"/>
            <path class="cls-1" d="m234.86,152.2h1.8l-2.63,14.89h-1.8l2.63-14.89Z"/>
            <path class="cls-1"
                  d="m237.31,161.84c.27-1.54.91-2.79,1.93-3.77,1.01-.98,2.22-1.46,3.61-1.46s2.38.46,2.97,1.37c.59.91.75,2.14.48,3.69l-.14.74h-7.84l.25-1.43h6.03l.05-.23c.13-.74.03-1.36-.3-1.88-.33-.52-.89-.78-1.68-.78-.96,0-1.73.36-2.34,1.09-.6.73-.99,1.62-1.17,2.67l-.06.31c-.19,1.05-.1,1.94.28,2.67s1.08,1.09,2.13,1.09c.65,0,1.23-.14,1.74-.43.51-.28.95-.62,1.31-1.01l1,.92c-.41.48-.99.94-1.74,1.36s-1.61.63-2.58.63c-1.58,0-2.71-.49-3.38-1.46-.67-.98-.87-2.23-.6-3.77l.06-.31Z"/>
            <path class="cls-1"
                  d="m247.85,161.84c.27-1.54.91-2.79,1.92-3.77,1.01-.98,2.25-1.46,3.71-1.46,1.36,0,2.32.37,2.9,1.1.58.73.78,1.55.62,2.46v.05h-1.75v-.05c.11-.55,0-1.03-.31-1.45-.31-.42-.88-.63-1.72-.63-.98,0-1.77.36-2.36,1.09-.59.73-.98,1.62-1.16,2.67l-.06.31c-.19,1.05-.11,1.94.23,2.67s1,1.09,1.98,1.09c.84,0,1.49-.21,1.94-.63s.73-.9.82-1.45v-.05h1.75v.05c-.16.9-.66,1.72-1.49,2.46-.83.73-1.93,1.1-3.29,1.1-1.47,0-2.53-.49-3.2-1.46s-.86-2.23-.59-3.77l.06-.31Z"/>
            <path class="cls-1"
                  d="m258.24,156.89h5.82l-.24,1.38h-5.82l.24-1.38Zm1.68.83l.06-.29.53-3.06h1.8l-1.79,10.2c-.08.45-.04.78.1.97.15.19.41.29.8.29.18,0,.36-.02.54-.06.18-.04.37-.09.56-.15l-.26,1.47c-.18.08-.41.15-.69.2s-.58.09-.91.09c-.74,0-1.3-.23-1.66-.68-.37-.45-.46-1.16-.29-2.13l1.2-6.84Z"/>
            <path class="cls-1"
                  d="m265.98,156.89h1.63l-.15,1.31h.06c.33-.43.73-.8,1.21-1.12.48-.32,1.01-.48,1.59-.48.14,0,.29.02.44.05.15.03.25.06.31.09l-.29,1.67c-.12-.03-.26-.04-.4-.06-.14-.01-.3-.02-.47-.02-.58,0-1.1.15-1.56.46-.46.3-.83.68-1.1,1.13l-1.26,7.17h-1.8l1.79-10.2Z"/>
            <path class="cls-1"
                  d="m272.85,156.89h1.8l-1.79,10.2h-1.8l1.79-10.2Zm.75-3.85c.23-.21.52-.31.89-.31s.62.1.78.31c.16.21.21.46.16.77-.06.3-.2.56-.43.77-.23.21-.53.31-.89.31s-.62-.1-.78-.31c-.16-.21-.21-.46-.15-.77.05-.3.19-.56.42-.77Z"/>
            <path class="cls-1"
                  d="m276.13,161.84c.27-1.54.91-2.79,1.92-3.77,1.01-.98,2.25-1.46,3.71-1.46,1.36,0,2.32.37,2.9,1.1.58.73.78,1.55.62,2.46v.05h-1.75v-.05c.11-.55,0-1.03-.31-1.45-.31-.42-.88-.63-1.72-.63-.98,0-1.77.36-2.36,1.09-.59.73-.98,1.62-1.16,2.67l-.06.31c-.19,1.05-.11,1.94.23,2.67s1,1.09,1.98,1.09c.84,0,1.49-.21,1.94-.63s.73-.9.82-1.45v-.05h1.75v.05c-.16.9-.66,1.72-1.49,2.46-.83.73-1.93,1.1-3.29,1.1-1.47,0-2.53-.49-3.2-1.46s-.86-2.23-.59-3.77l.06-.31Z"/>
            <path class="cls-1"
                  d="m297.26,152.9h2.64l2.93,14.19h-2.72l-1.93-10.21c-.04-.21-.06-.42-.08-.62-.01-.2-.02-.4-.03-.61h-.09c-.08.21-.16.41-.25.61-.09.2-.19.41-.31.62l-5.52,10.21h-2.51l7.86-14.19Zm-3.49,8.91h6.37l.3,1.98h-7.67l1-1.98Z"/>
            <path class="cls-1"
                  d="m304.41,161.84c.27-1.54.91-2.79,1.92-3.77,1.01-.98,2.25-1.46,3.71-1.46,1.36,0,2.32.37,2.9,1.1.58.73.78,1.55.62,2.46v.05h-1.75v-.05c.11-.55,0-1.03-.31-1.45-.31-.42-.88-.63-1.72-.63-.98,0-1.77.36-2.36,1.09-.59.73-.98,1.62-1.16,2.67l-.06.31c-.19,1.05-.11,1.94.23,2.67s1,1.09,1.98,1.09c.84,0,1.49-.21,1.94-.63s.73-.9.82-1.45v-.05h1.75v.05c-.16.9-.66,1.72-1.49,2.46-.83.73-1.93,1.1-3.29,1.1-1.47,0-2.53-.49-3.2-1.46s-.86-2.23-.59-3.77l.06-.31Z"/>
            <path class="cls-1"
                  d="m316.06,161.67c.92-.58,2.01-.86,3.28-.86h2.31l.13-.7c.11-.61.04-1.11-.21-1.5-.25-.38-.76-.58-1.54-.58s-1.36.16-1.75.48c-.39.32-.62.69-.69,1.11v.05h-1.8v-.05c.15-.81.64-1.51,1.46-2.12.83-.6,1.85-.91,3.08-.91s2.13.29,2.7.88c.57.59.75,1.46.55,2.63l-.82,4.65c-.07.42-.11.82-.11,1.19s.03.7.1.98l-.03.16h-1.74c-.06-.16-.11-.37-.14-.63-.03-.26-.03-.52,0-.78-.32.42-.77.79-1.36,1.11-.59.32-1.31.48-2.15.48-.97,0-1.74-.27-2.33-.82-.58-.55-.78-1.34-.59-2.38.18-1.03.73-1.84,1.65-2.41Zm.43,3.68c.28.33.77.49,1.48.49s1.4-.25,2.05-.74c.66-.49,1.04-1.01,1.13-1.56l.26-1.46h-2.11c-.9,0-1.62.17-2.15.51-.53.34-.84.8-.95,1.39-.1.58,0,1.04.27,1.37Z"/>
            <path class="cls-1"
                  d="m325.48,161.84c.26-1.49.86-2.71,1.81-3.68.95-.97,2.07-1.45,3.36-1.45.71,0,1.29.13,1.75.38.46.26.8.59,1.02,1.01l1.04-5.89h1.8l-2.63,14.89h-1.63l.16-1.33h-.06c-.33.42-.79.78-1.38,1.08-.59.3-1.24.45-1.95.45-1.29,0-2.24-.48-2.84-1.45s-.77-2.2-.51-3.68l.06-.31Zm2,2.92c.33.7.97,1.06,1.94,1.06.65,0,1.23-.18,1.74-.53s.91-.76,1.19-1.21l.73-4.15c-.12-.45-.37-.86-.76-1.21-.39-.36-.91-.53-1.56-.53-.97,0-1.74.35-2.32,1.06-.58.7-.95,1.57-1.13,2.61l-.06.31c-.18,1.03-.11,1.9.22,2.61Z"/>
            <path class="cls-1"
                  d="m336.82,161.84c.27-1.54.91-2.79,1.93-3.77,1.01-.98,2.22-1.46,3.61-1.46s2.38.46,2.97,1.37c.59.91.75,2.14.48,3.69l-.14.74h-7.84l.25-1.43h6.03l.05-.23c.13-.74.03-1.36-.3-1.88-.33-.52-.89-.78-1.68-.78-.96,0-1.73.36-2.34,1.09-.6.73-.99,1.62-1.17,2.67l-.06.31c-.19,1.05-.1,1.94.28,2.67s1.08,1.09,2.13,1.09c.65,0,1.23-.14,1.74-.43.51-.28.95-.62,1.31-1.01l1,.92c-.41.48-.99.94-1.74,1.36s-1.61.63-2.58.63c-1.58,0-2.71-.49-3.38-1.46-.67-.98-.87-2.23-.6-3.77l.06-.31Z"/>
            <path class="cls-1"
                  d="m348.84,156.89h1.63l-.15,1.31h.06c.44-.46.94-.82,1.5-1.09s1.16-.41,1.78-.41c.68,0,1.25.14,1.7.41s.75.71.91,1.32h.06c.53-.61,1.08-1.05,1.64-1.32s1.18-.41,1.86-.41c1.06,0,1.83.29,2.33.88.49.58.62,1.56.38,2.93l-1.16,6.58h-1.8l1.16-6.6c.14-.81.07-1.4-.21-1.75-.28-.35-.75-.53-1.39-.53-.56,0-1.07.16-1.54.47s-.88.71-1.21,1.2l-1.27,7.21h-1.8l1.16-6.6c.14-.81.07-1.4-.21-1.75-.28-.35-.75-.53-1.39-.53-.56,0-1.07.16-1.54.47s-.88.71-1.21,1.2l-1.27,7.21h-1.8l1.79-10.2Z"/>
            <path class="cls-1"
                  d="m366.02,156.89h1.8l-1.79,10.2h-1.8l1.79-10.2Zm.75-3.85c.23-.21.52-.31.89-.31s.62.1.78.31c.16.21.21.46.16.77-.06.3-.2.56-.43.77-.23.21-.53.31-.89.31s-.62-.1-.78-.31c-.16-.21-.21-.46-.15-.77.05-.3.19-.56.42-.77Z"/>
            <path class="cls-1"
                  d="m369.31,161.84c.27-1.54.91-2.79,1.92-3.77,1.01-.98,2.25-1.46,3.71-1.46,1.36,0,2.32.37,2.9,1.1.58.73.78,1.55.62,2.46v.05h-1.75v-.05c.11-.55,0-1.03-.31-1.45-.31-.42-.88-.63-1.72-.63-.98,0-1.77.36-2.36,1.09-.59.73-.98,1.62-1.16,2.67l-.06.31c-.19,1.05-.11,1.94.23,2.67s1,1.09,1.98,1.09c.84,0,1.49-.21,1.94-.63s.73-.9.82-1.45v-.05h1.75v.05c-.16.9-.66,1.72-1.49,2.46-.83.73-1.93,1.1-3.29,1.1-1.47,0-2.53-.49-3.2-1.46s-.86-2.23-.59-3.77l.06-.31Z"/>
            <path class="cls-1"
                  d="m386.79,152.98h4.96c1.6,0,2.78.39,3.52,1.16.75.77,1,1.84.76,3.19-.24,1.36-.87,2.44-1.9,3.24-1.03.79-2.34,1.19-3.94,1.19h-2.36l-.94,5.33h-2.6l2.49-14.11Zm3.69,6.81c.93,0,1.62-.23,2.08-.68.46-.45.75-1.04.87-1.76.13-.72.04-1.3-.26-1.74-.3-.44-.92-.65-1.85-.65h-2.31l-.84,4.84h2.3Zm-.51.79l2.67-.18,2.39,6.7h-2.84l-2.22-6.51Z"/>
            <path class="cls-1"
                  d="m398.31,161.67c.92-.58,2.01-.86,3.28-.86h2.31l.13-.7c.11-.61.04-1.11-.21-1.5-.25-.38-.76-.58-1.54-.58s-1.36.16-1.75.48c-.39.32-.62.69-.69,1.11v.05h-1.8v-.05c.15-.81.64-1.51,1.46-2.12.83-.6,1.85-.91,3.08-.91s2.13.29,2.7.88c.57.59.75,1.46.55,2.63l-.82,4.65c-.07.42-.11.82-.11,1.19s.03.7.1.98l-.03.16h-1.74c-.06-.16-.11-.37-.14-.63-.03-.26-.03-.52,0-.78-.32.42-.77.79-1.36,1.11-.59.32-1.31.48-2.15.48-.97,0-1.74-.27-2.33-.82-.58-.55-.78-1.34-.59-2.38.18-1.03.73-1.84,1.65-2.41Zm.43,3.68c.28.33.77.49,1.48.49s1.4-.25,2.05-.74c.66-.49,1.04-1.01,1.13-1.56l.26-1.46h-2.11c-.9,0-1.62.17-2.15.51-.53.34-.84.8-.95,1.39-.1.58,0,1.04.27,1.37Z"/>
            <path class="cls-1"
                  d="m407.73,161.84c.27-1.54.91-2.79,1.92-3.77,1.01-.98,2.25-1.46,3.71-1.46,1.36,0,2.32.37,2.9,1.1.58.73.78,1.55.62,2.46v.05h-1.75v-.05c.11-.55,0-1.03-.31-1.45-.31-.42-.88-.63-1.72-.63-.98,0-1.77.36-2.36,1.09-.59.73-.98,1.62-1.16,2.67l-.06.31c-.19,1.05-.11,1.94.23,2.67s1,1.09,1.98,1.09c.84,0,1.49-.21,1.94-.63s.73-.9.82-1.45v-.05h1.75v.05c-.16.9-.66,1.72-1.49,2.46-.83.73-1.93,1.1-3.29,1.1-1.47,0-2.53-.49-3.2-1.46s-.86-2.23-.59-3.77l.06-.31Z"/>
            <path class="cls-1"
                  d="m419.64,156.89h1.8l-1.79,10.2h-1.8l1.79-10.2Zm.75-3.85c.23-.21.52-.31.89-.31s.62.1.78.31c.16.21.21.46.16.77-.06.3-.2.56-.43.77-.23.21-.53.31-.89.31s-.62-.1-.78-.31c-.16-.21-.21-.46-.15-.77.05-.3.19-.56.42-.77Z"/>
            <path class="cls-1"
                  d="m424.4,156.89h1.63l-.15,1.31h.06c.45-.46.96-.83,1.54-1.1.58-.27,1.2-.4,1.84-.4,1.03,0,1.79.29,2.3.88.51.58.64,1.56.4,2.93l-1.16,6.58h-1.8l1.16-6.6c.14-.81.06-1.4-.24-1.75-.3-.35-.79-.53-1.46-.53-.58,0-1.11.16-1.6.47-.49.31-.91.71-1.25,1.2l-1.27,7.21h-1.8l1.79-10.2Z"/>
            <path class="cls-1"
                  d="m434.3,168.49c.23.33.57.62,1.05.88.47.25,1.03.38,1.68.38.87,0,1.6-.25,2.2-.75s.97-1.2,1.13-2.1l.17-1.01c-.37.42-.83.76-1.38,1.01-.55.25-1.17.38-1.89.38-1.29,0-2.24-.48-2.84-1.45s-.77-2.2-.51-3.68l.06-.31c.26-1.49.86-2.71,1.81-3.68.95-.97,2.07-1.45,3.36-1.45.71,0,1.31.15,1.79.45s.81.66.99,1.08h.06l.31-1.33h1.63l-1.75,10c-.25,1.42-.87,2.51-1.85,3.28-.98.76-2.15,1.14-3.51,1.14-.84,0-1.59-.14-2.25-.42s-1.2-.63-1.61-1.06l1.38-1.36Zm1.66-3.73c.33.7.97,1.06,1.94,1.06.65,0,1.23-.18,1.74-.53s.91-.76,1.19-1.21l.73-4.15c-.12-.45-.37-.86-.76-1.21-.39-.36-.91-.53-1.56-.53-.97,0-1.74.35-2.32,1.06-.58.7-.95,1.57-1.13,2.61l-.06.31c-.18,1.03-.11,1.9.22,2.61Z"/>
        </g>
        <g id="Roboto_Flex_Italic_greenBEAR" data-name="Roboto Flex Italic greenBEAR">
            <path class="cls-1"
                  d="m131.77,145.88c.55.64,1.59,1.29,3.12,1.93,1.53.64,3.27.97,5.2.97s3.73-.64,5.21-1.92c1.48-1.28,2.46-3.26,2.93-5.93l.18-.88c-.94,1.17-2.17,2.07-3.69,2.68s-3.24.92-5.16.92c-3.98,0-6.97-1.4-8.95-4.2-1.98-2.8-2.55-6.59-1.71-11.35l.18-.94c.84-4.78,2.74-8.58,5.7-11.38,2.96-2.8,6.44-4.2,10.44-4.2,1.84,0,3.45.37,4.85,1.1,1.4.73,2.29,1.69,2.68,2.89h.18l.76-3.4h9.38l-5.01,28.45c-.88,4.92-3.07,8.7-6.58,11.34-3.51,2.64-7.52,3.96-12.06,3.96-2.77,0-5.24-.41-7.41-1.23s-3.88-1.84-5.13-3.05l4.89-5.74Zm7.57-11.59c.77,1.4,2.18,2.09,4.23,2.09,1.33,0,2.54-.4,3.63-1.2,1.09-.8,1.92-1.71,2.49-2.72l1.67-9.43c-.22-1.29-.74-2.31-1.57-3.06-.83-.75-1.93-1.13-3.3-1.13-1.95,0-3.56.7-4.82,2.11s-2.1,3.29-2.53,5.65l-.35,2.05c-.41,2.36-.23,4.24.54,5.64Z"/>
            <path class="cls-1"
                  d="m170.33,112.16h9.4l-.38,3.16h.18c.74-1.09,1.7-2.04,2.87-2.83s2.37-1.19,3.6-1.19c.39,0,.78.05,1.16.15.38.1.65.19.81.26l-1.46,8.38c-.31-.1-.65-.17-1.03-.22-.37-.05-.78-.07-1.23-.07-1.19,0-2.35.38-3.49,1.13-1.13.75-2.02,1.7-2.67,2.86l-3.4,19.31h-9.81l5.45-30.94Z"/>
            <path class="cls-1"
                  d="m187.73,127.13c.86-4.8,3.04-8.65,6.53-11.54,3.5-2.89,7.52-4.34,12.07-4.34s8.01,1.36,10.2,4.07c2.19,2.72,2.85,6.48,1.99,11.31l-.62,3.43h-23.91l1.03-5.8h14.27l.12-.64c.27-1.54.03-2.84-.72-3.88-.75-1.04-1.98-1.57-3.68-1.57-1.93,0-3.54.72-4.83,2.15s-2.17,3.5-2.64,6.2l-.38,2.17c-.47,2.62-.27,4.64.6,6.06.87,1.43,2.37,2.14,4.5,2.14,1.54,0,2.96-.41,4.25-1.22,1.29-.81,2.38-1.72,3.28-2.74l6.18,4.42c-1.31,2.01-3.29,3.62-5.93,4.83-2.65,1.21-5.58,1.82-8.8,1.82-5.08,0-8.84-1.45-11.28-4.34-2.44-2.89-3.23-6.76-2.37-11.6l.15-.94Z"/>
            <path class="cls-1"
                  d="m221.98,127.13c.86-4.8,3.04-8.65,6.53-11.54,3.5-2.89,7.52-4.34,12.07-4.34s8.01,1.36,10.2,4.07c2.19,2.72,2.85,6.48,1.99,11.31l-.62,3.43h-23.91l1.03-5.8h14.27l.12-.64c.27-1.54.03-2.84-.72-3.88-.75-1.04-1.98-1.57-3.68-1.57-1.93,0-3.54.72-4.83,2.15s-2.17,3.5-2.64,6.2l-.38,2.17c-.47,2.62-.27,4.64.6,6.06.87,1.43,2.37,2.14,4.5,2.14,1.54,0,2.96-.41,4.25-1.22,1.29-.81,2.38-1.72,3.28-2.74l6.18,4.42c-1.31,2.01-3.29,3.62-5.93,4.83-2.65,1.21-5.58,1.82-8.8,1.82-5.08,0-8.84-1.45-11.28-4.34-2.44-2.89-3.23-6.76-2.37-11.6l.15-.94Z"/>
            <path class="cls-1"
                  d="m260.48,112.16h9.38l-.38,3.31h.15c.86-1.11,2.14-2.05,3.85-2.81,1.71-.76,3.5-1.14,5.38-1.14,3.18,0,5.64.91,7.38,2.72,1.74,1.82,2.2,5.05,1.38,9.7l-3.37,19.16h-9.79l3.43-19.51c.31-1.74.16-2.95-.45-3.63-.62-.68-1.61-1.03-2.97-1.03-1.09,0-2.2.32-3.31.97s-2.02,1.57-2.72,2.78l-3.6,20.42h-9.79l5.45-30.94Z"/>
            <path class="cls-1"
                  d="m299.5,100.44h16.49c4.88,0,8.54.92,10.99,2.75,2.44,1.84,3.33,4.68,2.67,8.53-.41,2.34-1.28,4.28-2.61,5.8-1.33,1.52-2.8,2.55-4.42,3.08v.12c1.8.55,3.17,1.68,4.13,3.38.96,1.71,1.19,3.95.7,6.72-.68,3.89-2.69,6.9-6.01,9.05-3.32,2.15-7.36,3.22-12.13,3.22h-17.34l7.53-42.66Zm10.78,35.71c2.11,0,3.75-.54,4.94-1.61,1.18-1.07,1.94-2.53,2.27-4.37.31-1.82.06-3.26-.75-4.34-.81-1.07-2.27-1.61-4.38-1.61h-7.06l-2.08,11.92h7.06Zm2.4-18.4c2.09,0,3.68-.45,4.76-1.36s1.77-2.18,2.07-3.82.06-2.91-.7-3.79c-.76-.89-2.19-1.33-4.28-1.33h-6.24l-1.85,10.31h6.24Z"/>
            <path class="cls-1"
                  d="m339.67,100.44h29.38l-1.35,7.56h-19.37l-1.67,9.46h16.7l-1.32,7.41h-16.7l-1.88,10.69h19.66l-1.32,7.53h-29.68l7.53-42.66Z"/>
            <path class="cls-1"
                  d="m386.34,100.27h10.93l9.05,42.83h-10.9l-5.51-29.47c-.12-.66-.19-1.3-.22-1.9-.03-.61-.04-1.21-.04-1.82h-.23c-.2.61-.42,1.22-.66,1.83-.24.62-.54,1.25-.89,1.89l-15.91,29.47h-9.35l23.73-42.83Zm-8.7,26.66h18.43l.91,7.35h-22.85l3.52-7.35Z"/>
            <path class="cls-1"
                  d="m417.16,100.44h16.08c5.12,0,8.91,1.19,11.38,3.56,2.47,2.37,3.31,5.78,2.53,10.21-.78,4.47-2.85,7.93-6.2,10.37-3.35,2.44-7.55,3.66-12.61,3.66h-6.01l-2.61,14.85h-10.11l7.53-42.66Zm12.04,20.51c2.42,0,4.24-.58,5.45-1.74,1.21-1.16,2.01-2.8,2.4-4.91.37-2.07.15-3.66-.67-4.78s-2.44-1.67-4.86-1.67h-5.57l-2.31,13.1h5.57Zm-2.84,2.49l10.72-.29,6.91,19.95h-11.19l-6.45-19.66Z"/>
        </g>
    </g>
</svg>
